<?xml version="1.0" encoding="UTF-8"?><svg id="Layer_2" xmlns="http://www.w3.org/2000/svg" viewBox="0 0 409.01 152.76"><defs><style>.cls-1{fill:#35363b;}</style></defs><g id="Layer_1-2"><g id="Vector"><path class="cls-1" d="M83.89,125.07h-10v-28.09h23.47c1.13,0,2.2-.44,3-1.24s1.24-1.86,1.24-3v-36.95c0-8.13-2.18-16.14-6.29-23.15-4.11-7.02-10.04-12.83-17.13-16.8s-15.15-6-23.27-5.83c-8.13.16-16.09,2.49-23.03,6.74-6.94,4.25-12.63,10.28-16.46,17.45-3.84,7.17-5.7,15.26-5.38,23.38.32,8.13,2.8,16.04,7.18,22.9,4.38,6.85,10.53,12.43,17.77,16.12l2.73,1.39v27.08h-10v-21.05c-7.64-4.45-14.14-10.68-18.92-18.16C3.45,77.52.43,67.87.04,57.97c-.38-9.9,1.88-19.75,6.56-28.49,4.67-8.74,11.61-16.09,20.06-21.27C35.11,3.04,44.81.2,54.71.01c9.9-.19,19.71,2.26,28.36,7.1,8.64,4.84,15.86,11.92,20.87,20.47,5.01,8.55,7.66,18.3,7.66,28.21v36.95c0,3.8-1.48,7.38-4.17,10.07-2.69,2.69-6.27,4.17-10.07,4.17h-13.47v18.09Z"/></g><path class="cls-1" d="M162.44,151.47H50.77V39.8h111.67v111.67ZM60.77,141.47h91.67V49.8H60.77v91.67Z"/><path class="cls-1" d="M194.15,57.22h17.77v-16.97h10.29v44.56h-10.29v-18.91h-17.77v18.91h-10.29v-44.56h10.29v16.97Z"/><path class="cls-1" d="M262.16,48.94h-14.9v8.62h14.16v8.68h-14.16v9.89h14.9v8.68h-25.19v-44.56h25.19v8.68Z"/><path class="cls-1" d="M301.71,76.4h-16.83l-3.41,8.42h-10.69l17.97-44.56h9.42l17.57,44.56h-10.69l-3.34-8.42ZM298.91,68.51l-5.48-14.96-5.54,14.96h11.02Z"/><path class="cls-1" d="M339.86,40.26c5.88,0,12.09.87,17.57,6.15,3.94,3.81,6.41,9.02,6.41,15.97s-2.4,12.09-6.08,15.77c-6.15,6.21-13.83,6.68-17.57,6.68h-14.43v-44.56h14.09ZM336.05,76.13h2.74c2.14,0,6.81-.2,10.15-3.01,2.4-2,4.34-5.81,4.34-10.76s-1.94-7.88-3.67-9.62c-3.34-3.34-7.68-3.81-10.82-3.81h-2.74v27.19Z"/><path class="cls-1" d="M199.5,107.13c5.68,0,9.22,1.87,11.36,3.87,1.87,1.8,3.87,5.01,3.87,9.95,0,2.81-.6,6.28-3.47,9.09-1.54,1.47-3.74,2.81-6.21,3.41l13.69,18.24h-12.56l-12.02-17.57v17.57h-10.29v-44.56h15.63ZM194.15,127.38h2.34c1.87,0,4.41-.2,6.15-1.94.73-.73,1.67-2.14,1.67-4.34,0-2.54-1.2-3.87-2.07-4.54-1.67-1.27-4.34-1.4-5.68-1.4h-2.41v12.22Z"/><path class="cls-1" d="M265.57,112.61c4.21,4.07,6.95,9.95,6.95,16.83,0,5.95-2.14,12.02-6.95,16.7-4.14,4.01-9.75,6.55-17.24,6.55-8.35,0-14.03-3.34-17.37-6.55-4.28-4.01-6.95-10.02-6.95-16.57s2.87-12.89,6.88-16.9c3.01-3.01,8.55-6.55,17.44-6.55,6.95,0,12.76,2.14,17.24,6.48ZM238.51,119.43c-1.94,1.87-3.94,5.14-3.94,10.09,0,4.08,1.34,7.35,4.07,10.02,2.87,2.74,6.08,3.67,9.55,3.67,4.54,0,7.75-1.67,9.89-3.81,1.74-1.67,3.87-4.81,3.87-9.95,0-4.61-1.87-8.02-3.87-10.02-2.21-2.14-5.75-3.81-9.82-3.81s-7.35,1.4-9.75,3.81Z"/><path class="cls-1" d="M321.35,112.61c4.21,4.07,6.95,9.95,6.95,16.83,0,5.95-2.14,12.02-6.95,16.7-4.14,4.01-9.75,6.55-17.24,6.55-8.35,0-14.03-3.34-17.37-6.55-4.28-4.01-6.95-10.02-6.95-16.57s2.87-12.89,6.88-16.9c3.01-3.01,8.55-6.55,17.44-6.55,6.95,0,12.76,2.14,17.24,6.48ZM294.3,119.43c-1.94,1.87-3.94,5.14-3.94,10.09,0,4.08,1.34,7.35,4.08,10.02,2.87,2.74,6.08,3.67,9.55,3.67,4.54,0,7.75-1.67,9.89-3.81,1.74-1.67,3.88-4.81,3.88-9.95,0-4.61-1.87-8.02-3.88-10.02-2.2-2.14-5.75-3.81-9.82-3.81s-7.35,1.4-9.75,3.81Z"/><path class="cls-1" d="M335.59,151.69l7.15-44.56h8.55l11.09,26.65,11.09-26.65h8.55l7.15,44.56h-10.29l-3.54-26.59-11.16,26.59h-3.61l-11.16-26.59-3.54,26.59h-10.29Z"/><path class="cls-1" d="M402.93,140.6c3.41,0,6.08,2.67,6.08,6.08s-2.67,6.08-6.08,6.08-6.08-2.67-6.08-6.08,2.67-6.08,6.08-6.08Z"/></g></svg>